<?xml version="1.0" encoding="iso-8859-1"?>
<!-- Uploaded to: SVG Repo, www.svgrepo.com, Generator: SVG Repo Mixer Tools -->
<svg height="800px" width="800px" version="1.1" id="Layer_1" xmlns="http://www.w3.org/2000/svg" xmlns:xlink="http://www.w3.org/1999/xlink" 
	 viewBox="0 0 512 512" xml:space="preserve">
<path style="fill:#38454F;" d="M185.379,392.828v17.655h141.241v-17.655h167.724V92.69c0-9.71-7.945-17.655-17.655-17.655H35.31
	c-9.71,0-17.655,7.945-17.655,17.655v300.138H185.379z"/>
<path style="fill:#546A79;" d="M35.31,375.172H476.69V92.69H35.31V375.172z"/>
<g>
	<path style="fill:#A2C9EC;" d="M229.517,322.207H88.276l-35.31,26.483V189.793h176.552V322.207z"/>
	<path style="fill:#A2C9EC;" d="M282.483,251.586h141.241l35.31,26.483V119.172H282.483V251.586z"/>
</g>
<path style="fill:#B0B6BB;" d="M326.621,392.828v17.655H185.379v-17.655H0v26.483c0,9.71,7.945,17.655,17.655,17.655h476.69
	c9.71,0,17.655-7.945,17.655-17.655v-26.483H326.621z"/>
<path style="fill:#ECBA16;" d="M88.276,145.655h-35.31c-5.297,0-8.828-3.531-8.828-8.828c0-5.297,3.531-8.828,8.828-8.828h35.31
	c5.297,0,8.828,3.531,8.828,8.828C97.103,142.124,93.572,145.655,88.276,145.655"/>
<path style="fill:#42B05C;" d="M211.862,145.655h-35.31c-5.297,0-8.828-3.531-8.828-8.828c0-5.297,3.531-8.828,8.828-8.828h35.31
	c5.297,0,8.828,3.531,8.828,8.828C220.69,142.124,217.159,145.655,211.862,145.655"/>
<path style="fill:#DD342E;" d="M141.241,145.655h-17.655c-5.297,0-8.828-3.531-8.828-8.828c0-5.297,3.531-8.828,8.828-8.828h17.655
	c5.297,0,8.828,3.531,8.828,8.828C150.069,142.124,146.538,145.655,141.241,145.655"/>
<path style="fill:#ECBA16;" d="M335.448,339.862h-35.31c-5.297,0-8.828-3.531-8.828-8.828c0-5.297,3.531-8.828,8.828-8.828h35.31
	c5.297,0,8.828,3.531,8.828,8.828C344.276,336.331,340.745,339.862,335.448,339.862"/>
<path style="fill:#42B05C;" d="M459.034,339.862h-35.31c-5.297,0-8.828-3.531-8.828-8.828c0-5.297,3.531-8.828,8.828-8.828h35.31
	c5.297,0,8.828,3.531,8.828,8.828C467.862,336.331,464.331,339.862,459.034,339.862"/>
<path style="fill:#DD342E;" d="M388.414,339.862h-17.655c-5.297,0-8.828-3.531-8.828-8.828c0-5.297,3.531-8.828,8.828-8.828h17.655
	c5.297,0,8.828,3.531,8.828,8.828C397.241,336.331,393.71,339.862,388.414,339.862"/>
<g>
	<path style="fill:#FFFFFF;" d="M414.897,172.138h-44.138c-5.297,0-8.828-3.531-8.828-8.828s3.531-8.828,8.828-8.828h44.138
		c5.297,0,8.828,3.531,8.828,8.828S420.193,172.138,414.897,172.138"/>
	<path style="fill:#FFFFFF;" d="M335.448,172.138h-8.828c-5.297,0-8.828-3.531-8.828-8.828s3.531-8.828,8.828-8.828h8.828
		c5.297,0,8.828,3.531,8.828,8.828S340.745,172.138,335.448,172.138"/>
	<path style="fill:#FFFFFF;" d="M361.931,216.276h-35.31c-5.297,0-8.828-3.531-8.828-8.828s3.531-8.828,8.828-8.828h35.31
		c5.297,0,8.828,3.531,8.828,8.828S367.228,216.276,361.931,216.276"/>
	<path style="fill:#FFFFFF;" d="M414.897,216.276h-17.655c-5.297,0-8.828-3.531-8.828-8.828s3.531-8.828,8.828-8.828h17.655
		c5.297,0,8.828,3.531,8.828,8.828S420.193,216.276,414.897,216.276"/>
	<path style="fill:#FFFFFF;" d="M185.379,242.759h-44.138c-5.297,0-8.828-3.531-8.828-8.828s3.531-8.828,8.828-8.828h44.138
		c5.297,0,8.828,3.531,8.828,8.828S190.676,242.759,185.379,242.759"/>
	<path style="fill:#FFFFFF;" d="M105.931,242.759h-8.828c-5.297,0-8.828-3.531-8.828-8.828s3.531-8.828,8.828-8.828h8.828
		c5.297,0,8.828,3.531,8.828,8.828S111.228,242.759,105.931,242.759"/>
	<path style="fill:#FFFFFF;" d="M132.414,286.897h-35.31c-5.297,0-8.828-3.531-8.828-8.828c0-5.297,3.531-8.828,8.828-8.828h35.31
		c5.297,0,8.828,3.531,8.828,8.828C141.241,283.366,137.71,286.897,132.414,286.897"/>
	<path style="fill:#FFFFFF;" d="M185.379,286.897h-17.655c-5.297,0-8.828-3.531-8.828-8.828c0-5.297,3.531-8.828,8.828-8.828h17.655
		c5.297,0,8.828,3.531,8.828,8.828C194.207,283.366,190.676,286.897,185.379,286.897"/>
</g>
</svg>