<?xml version="1.0" ?>
<!-- Uploaded to: SVG Repo, www.svgrepo.com, Generator: SVG Repo Mixer Tools -->
<svg width="800px" height="800px" viewBox="0 0 512 512" id="Layer_1" version="1.1" xml:space="preserve" xmlns="http://www.w3.org/2000/svg" xmlns:xlink="http://www.w3.org/1999/xlink">
<style type="text/css">
	.st0{fill:#FFFFFF;}
	.st1{fill:#EDEDED;}
	.st2{fill:#D3D9D9;}
	.st3{fill:#A8B2B4;}
	.st4{fill:#333333;}
	.st5{fill:#FC8A8A;}
	.st6{fill:#FEDD8E;}
	.st7{fill:#7BDE9E;}
	.st8{fill:#F96363;}
	.st9{fill:#FDD267;}
	.st10{fill:#50D27E;}
	.st11{fill:#FB8A8A;}
	.st12{fill:#FCB1B1;}
	.st13{fill:#FDDD8D;}
	.st14{fill:#FEE8B3;}
</style>
<g>
<g>
<g>
<g>
<g>
<path class="st0" d="M508,82.9v394.2c0,17-13.8,30.9-30.8,30.9H34.8C17.8,508,4,494.2,4,477.1V82.9H508z"/>
</g>
<g>
<path class="st1" d="M508,82.9v394.2c0,17-13.8,30.9-30.8,30.9h-28.6c17,0,30.9-13.8,30.9-30.9V82.9H508z"/>
</g>
<g>
<path class="st2" d="M508,82.9v-48c0-17-13.8-30.8-30.8-30.8H34.9C17.8,4,4,17.8,4,34.9v48H508z"/>
</g>
<g>
<path class="st1" d="M63.5,4c-17,0-30.9,13.8-30.9,30.8v48.1H4V34.8C4,17.8,17.8,4,34.8,4H63.5z"/>
</g>
<g>
<path class="st3" d="M508,34.8v48.1h-28.6V34.8c0-17-13.8-30.8-30.9-30.8h28.7C494.2,4,508,17.8,508,34.8z"/>
</g>
<path class="st4" d="M512,34.8C512,15.6,496.4,0,477.2,0H34.9C15.6,0,0,15.6,0,34.8l0,442.3C0,496.3,15.6,512,34.8,512h442.3      c19.2,0,34.8-15.6,34.8-34.9L512,34.8z M8,34.8C8,20,20.1,8,34.9,8h442.3C492,8,504,20,504,34.8v44H8V34.8z M504,477.1      c0,14.8-12,26.9-26.8,26.9H34.8C20,504,8,491.9,8,477.1V86.9h496V477.1z"/>
<g>
<g>
<g>
<circle class="st5" cx="50.6" cy="43.5" r="14"/>
</g>
<g>
<circle class="st6" cx="100.5" cy="43.5" r="14"/>
</g>
<g>
<circle class="st7" cx="150.3" cy="43.5" r="14"/>
</g>
</g>
<g>
<g>
<path class="st8" d="M64.6,43.4c0,7.8-6.3,14-14,14c-6,0-11.2-3.8-13.2-9.3c1.5,0.5,3.1,0.8,4.8,0.8c7.7,0,14-6.2,14-14         c0-1.7-0.3-3.3-0.8-4.8C60.7,32.3,64.6,37.4,64.6,43.4z"/>
</g>
<g>
<path class="st9" d="M114.4,43.4c0,7.8-6.3,14-14,14c-6,0-11.2-3.8-13.2-9.3c1.5,0.5,3.1,0.8,4.8,0.8c7.7,0,14-6.2,14-14         c0-1.7-0.3-3.3-0.8-4.8C110.6,32.3,114.4,37.4,114.4,43.4z"/>
</g>
<g>
<path class="st10" d="M164.3,43.4c0,7.8-6.3,14-14,14c-6,0-11.2-3.8-13.2-9.3c1.5,0.5,3.1,0.8,4.7,0.8c7.7,0,14-6.2,14-14         c0-1.7-0.3-3.3-0.9-4.8C160.4,32.3,164.3,37.4,164.3,43.4z"/>
</g>
</g>
<g>
<g>
<path class="st4" d="M50.6,61.5c-9.9,0-18-8.1-18-18s8.1-18,18-18s18,8.1,18,18S60.5,61.5,50.6,61.5z M50.6,33.5         c-5.5,0-10,4.5-10,10s4.5,10,10,10s10-4.5,10-10S56.1,33.5,50.6,33.5z"/>
</g>
<g>
<path class="st4" d="M100.5,61.5c-9.9,0-18-8.1-18-18s8.1-18,18-18s18,8.1,18,18S110.4,61.5,100.5,61.5z M100.5,33.5         c-5.5,0-10,4.5-10,10s4.5,10,10,10s10-4.5,10-10S106,33.5,100.5,33.5z"/>
</g>
<g>
<path class="st4" d="M150.3,61.5c-9.9,0-18-8.1-18-18s8.1-18,18-18s18,8.1,18,18S160.2,61.5,150.3,61.5z M150.3,33.5         c-5.5,0-10,4.5-10,10s4.5,10,10,10c5.5,0,10-4.5,10-10S155.8,33.5,150.3,33.5z"/>
</g>
</g>
<g>
<g>
<path class="st0" d="M475.4,43.4c0,7.8-6.3,14-14,14H229.7c-7.7,0-14-6.2-14-14c0-7.7,6.3-14,14-14h231.7         C469.1,29.4,475.4,35.7,475.4,43.4z"/>
</g>
</g>
<g>
<g>
<path class="st1" d="M475.4,43.4c0,7.8-6.3,14-14,14H229.7c-7.5,0-13.6-5.9-14-13.3c2,1.1,4.3,1.7,6.7,1.7h231.7         c7.7,0,14-6.2,14-14v-0.6C472.4,33.5,475.4,38.2,475.4,43.4z"/>
</g>
</g>
<g>
<g>
<path class="st4" d="M461.4,61.4H229.7c-9.9,0-18-8.1-18-18s8.1-18,18-18h231.7c9.9,0,18,8.1,18,18S471.3,61.4,461.4,61.4z          M229.7,33.4c-5.5,0-10,4.5-10,10s4.5,10,10,10h231.7c5.5,0,10-4.5,10-10s-4.5-10-10-10H229.7z"/>
</g>
</g>
</g>
</g>
</g>
</g>
<g>
<g>
<g>
<g>
<g>
<path class="st11" d="M455.6,123.2c0,0,0,42.1,0,98.2H56.4v-98.2H455.6z"/>
</g>
<g>
<path class="st12" d="M455.6,123.2c0,0,0,8,0,21.7H56.4v-21.7H455.6z"/>
</g>
<g>
<rect class="st8" height="21.6" width="399.2" x="56.4" y="199.7"/>
</g>
<g>
<path class="st4" d="M455.6,225.3H56.4c-2.2,0-4-1.8-4-4v-98.2c0-2.2,1.8-4,4-4h399.2c2.2,0,4,1.8,4,4v98.2        C459.6,223.6,457.8,225.3,455.6,225.3z M60.4,217.3h391.2v-90.2H60.4V217.3z"/>
</g>
</g>
</g>
<g>
<g>
<path class="st4" d="M455.6,265.6H56.4c-2.2,0-4-1.8-4-4s1.8-4,4-4h399.2c2.2,0,4,1.8,4,4S457.8,265.6,455.6,265.6z"/>
</g>
<g>
<path class="st4" d="M455.6,471.7H56.4c-2.2,0-4-1.8-4-4s1.8-4,4-4h399.2c2.2,0,4,1.8,4,4S457.8,471.7,455.6,471.7z"/>
</g>
<g>
<path class="st4" d="M455.6,431.4H268.9c-2.2,0-4-1.8-4-4s1.8-4,4-4h186.7c2.2,0,4,1.8,4,4S457.8,431.4,455.6,431.4z"/>
</g>
<g>
<path class="st4" d="M455.6,389.6H268.9c-2.2,0-4-1.8-4-4s1.8-4,4-4h186.7c2.2,0,4,1.8,4,4S457.8,389.6,455.6,389.6z"/>
</g>
<g>
<path class="st4" d="M455.6,347.7H268.9c-2.2,0-4-1.8-4-4s1.8-4,4-4h186.7c2.2,0,4,1.8,4,4S457.8,347.7,455.6,347.7z"/>
</g>
<g>
<path class="st4" d="M455.6,305.8H268.9c-2.2,0-4-1.8-4-4s1.8-4,4-4h186.7c2.2,0,4,1.8,4,4S457.8,305.8,455.6,305.8z"/>
</g>
<g>
<rect class="st13" height="125.6" width="160.1" x="56.4" y="301.8"/>
</g>
<g>
<rect class="st14" height="26.1" width="160" x="56.4" y="301.8"/>
</g>
<g>
<rect class="st9" height="26.1" width="160" x="56.4" y="401.4"/>
</g>
<g>
<path class="st4" d="M216.4,431.4H56.4c-2.2,0-4-1.8-4-4V301.8c0-2.2,1.8-4,4-4h160.1c2.2,0,4,1.8,4,4v125.6       C220.4,429.7,218.7,431.4,216.4,431.4z M60.4,423.4h152.1V305.8H60.4V423.4z"/>
</g>
</g>
</g>
</g>
</g>
</svg>